<svg width="64" height="64" viewBox="0 0 64 64" fill="none" xmlns="http://www.w3.org/2000/svg">
<path d="M32 5.3335C36.5689 5.33331 41.0429 6.63727 44.8962 9.09213C48.7496 11.547 51.8221 15.0508 53.7528 19.1917C55.6835 23.3325 56.3922 27.9385 55.7954 32.4682C55.1986 36.998 53.3213 41.2633 50.384 44.7628C53.7307 46.9762 55.808 49.8028 55.9867 52.8935L56 53.3335L32 58.6668L8.00002 53.3335L8.01335 52.8935C8.19202 49.8002 10.2694 46.9735 13.6134 44.7602C9.98104 40.4411 7.99276 34.9769 8.00002 29.3335C8.00002 22.9683 10.5286 16.8638 15.0295 12.3629C19.5303 7.86206 25.6348 5.3335 32 5.3335ZM32 10.6668C27.0493 10.6668 22.3014 12.6335 18.8007 16.1342C15.3 19.6348 13.3334 24.3828 13.3334 29.3335C13.3334 33.5122 14.704 37.4668 17.1867 40.6962L17.6987 41.3335L21.5467 45.9122L16.3147 49.3762L15.9494 49.6348L32 53.2028L48.048 49.6348L47.9174 49.5388L47.4427 49.2108L42.4534 45.9122L46.3014 41.3308C49.1294 37.9737 50.6761 33.723 50.6667 29.3335C50.6667 24.3828 48.7 19.6348 45.1993 16.1342C41.6987 12.6335 36.9507 10.6668 32 10.6668ZM32 34.6668C35.68 34.6668 38.6667 36.4588 38.6667 38.6668C38.6667 40.8748 35.68 42.6668 32 42.6668C28.32 42.6668 25.3334 40.8748 25.3334 38.6668C25.3334 36.4588 28.32 34.6668 32 34.6668ZM24 21.3335C26.9467 21.3335 29.3334 23.1255 29.3334 25.3335C29.3334 27.5415 26.9467 29.3335 24 29.3335C21.0534 29.3335 18.6667 27.5415 18.6667 25.3335C18.6667 23.1255 21.0534 21.3335 24 21.3335ZM40 21.3335C42.9467 21.3335 45.3334 23.1255 45.3334 25.3335C45.3334 27.5415 42.9467 29.3335 40 29.3335C37.0534 29.3335 34.6667 27.5415 34.6667 25.3335C34.6667 23.1255 37.0534 21.3335 40 21.3335Z" fill="#E6B774"/>
</svg>
