<svg width="24" height="24" viewBox="0 0 24 24" fill="none" xmlns="http://www.w3.org/2000/svg">
<path d="M11.9746 22.074C6.46061 22.074 1.97461 17.588 1.97461 12.074C1.97461 6.56001 6.46061 2.07401 11.9746 2.07401C17.4886 2.07401 21.9746 6.56001 21.9746 12.074C21.9746 17.588 17.4886 22.074 11.9746 22.074ZM19.9056 13.074H17.1416C17.0172 15.2626 16.405 17.3957 15.3496 19.317C16.574 18.7452 17.6338 17.8729 18.4304 16.7813C19.227 15.6898 19.7345 14.4144 19.9056 13.074ZM12.5046 20.047C13.5396 18.683 14.9316 16.267 15.1316 13.074H9.00461C9.14361 15.67 9.99861 18.102 11.4556 20.048C11.6276 20.058 11.7996 20.074 11.9746 20.074C12.1536 20.074 12.3286 20.058 12.5046 20.047ZM8.66261 19.347C7.67861 17.456 7.11061 15.312 7.00461 13.074H4.04361C4.2161 14.4263 4.73086 15.7121 5.53915 16.8098C6.34744 17.9076 7.42252 18.7809 8.66261 19.347ZM4.04361 11.074H7.01761C7.15361 8.69501 7.68261 6.59601 8.57361 4.84401C7.3558 5.41807 6.30234 6.28983 5.51057 7.37873C4.7188 8.46763 4.21427 9.73854 4.04361 11.074ZM11.4246 4.10101C10.0236 5.79901 9.19661 8.17801 9.01561 11.074H15.1286C14.9206 8.30101 14.0116 5.87801 12.5256 4.10201C12.3436 4.09001 12.1616 4.07401 11.9746 4.07401C11.7886 4.07401 11.6076 4.09001 11.4246 4.10101ZM15.4356 4.873C16.3906 6.667 16.9736 8.77401 17.1266 11.074H19.9046C19.7363 9.74959 19.2392 8.48835 18.4586 7.40525C17.678 6.32215 16.6388 5.45162 15.4356 4.873Z" fill="#0F0F0F"/>
</svg>
