<svg width="32" height="32" viewBox="0 0 32 32" fill="none" xmlns="http://www.w3.org/2000/svg">
<path d="M22.3574 12.8535L14.7559 21.9746L9.72363 16.9424L11.6094 15.0576L14.5762 18.0254L20.3096 11.1465L22.3574 12.8535Z" fill="#E6B774"/>
<path fill-rule="evenodd" clip-rule="evenodd" d="M15.9004 3.99902C22.5276 3.99922 27.9004 9.37173 27.9004 15.999C27.9004 22.6263 22.5276 27.9988 15.9004 27.999C9.27297 27.999 3.90039 22.6264 3.90039 15.999C3.90039 9.37161 9.27297 3.99902 15.9004 3.99902ZM15.9004 6.99902C10.9298 6.99902 6.90039 11.0285 6.90039 15.999C6.90039 20.9696 10.9298 24.999 15.9004 24.999C20.8708 24.9988 24.9004 20.9695 24.9004 15.999C24.9004 11.0286 20.8708 6.99922 15.9004 6.99902Z" fill="#E6B774"/>
</svg>
