<svg width="64" height="64" viewBox="0 0 64 64" fill="none" xmlns="http://www.w3.org/2000/svg">
<path d="M5.33398 58.6668V16.0002H21.334L32.0006 5.3335L42.6673 16.0002H58.6673V58.6668H5.33398ZM10.6673 53.3335H53.334V21.3335H10.6673V53.3335ZM16.0007 48.0002H48.0006L38.0006 34.6668L30.0007 45.3335L24.0007 37.3335L16.0007 48.0002ZM46.6673 34.6668C47.7784 34.6668 48.7233 34.2784 49.502 33.5015C50.2806 32.7246 50.6691 31.7797 50.6673 30.6668C50.6655 29.5539 50.2771 28.6099 49.502 27.8348C48.7269 27.0597 47.782 26.6704 46.6673 26.6668C45.5527 26.6633 44.6086 27.0526 43.8353 27.8348C43.062 28.6171 42.6726 29.5611 42.6673 30.6668C42.662 31.7726 43.0513 32.7175 43.8353 33.5015C44.6193 34.2855 45.5633 34.6739 46.6673 34.6668ZM26.934 16.0002H37.0673L32.0006 10.9335L26.934 16.0002Z" fill="#E6B774"/>
</svg>
