<svg xmlns="http://www.w3.org/2000/svg" width="210" height="211" fill="none" viewBox="0 0 210 211"><g clip-path="url(#a)"><g clip-path="url(#b)" data-figma-skip-parse="true"><g fill="url(#c)" shape-rendering="crispEdges" transform="rotate(90.077 .07 105.13)scale(.1488)"><path d="M0 0h722.69v722.69H0z"/><path d="M0 0h722.69v-722.69H0z"/><path d="M0 0h-722.69v722.69H0z"/><path d="M0 0h-722.69v-722.69H0z"/></g></g><rect width="210.4" height="210.4" data-figma-gradient-fill="{&quot;type&quot;:&quot;GRADIENT_DIAMOND&quot;,&quot;stops&quot;:[{&quot;color&quot;:{&quot;r&quot;:1.0,&quot;g&quot;:0.80134683847427368,&quot;b&quot;:0.51816028356552124,&quot;a&quot;:1.0},&quot;position&quot;:0.25480768084526062},{&quot;color&quot;:{&quot;r&quot;:0.31531700491905212,&quot;g&quot;:0.25151371955871582,&quot;b&quot;:0.16056011617183685,&quot;a&quot;:1.0},&quot;position&quot;:1.0}],&quot;stopsVar&quot;:[{&quot;color&quot;:{&quot;r&quot;:1.0,&quot;g&quot;:0.80134683847427368,&quot;b&quot;:0.51816028356552124,&quot;a&quot;:1.0},&quot;position&quot;:0.25480768084526062},{&quot;color&quot;:{&quot;r&quot;:0.31531700491905212,&quot;g&quot;:0.25151371955871582,&quot;b&quot;:0.16056011617183685,&quot;a&quot;:1.0},&quot;position&quot;:1.0}],&quot;transform&quot;:{&quot;m00&quot;:-0.4003906250,&quot;m01&quot;:-297.5996093750,&quot;m02&quot;:254.20018005371094,&quot;m10&quot;:297.5996093750,&quot;m11&quot;:-0.4003906250,&quot;m12&quot;:-43.399406433105469},&quot;opacity&quot;:1.0,&quot;blendMode&quot;:&quot;NORMAL&quot;,&quot;visible&quot;:true}" rx="105.2"/><g clip-path="url(#d)" data-figma-skip-parse="true"><g fill="url(#e)" shape-rendering="crispEdges" transform="matrix(.105 .105 -.105 .105 105 105)"><path d="M0 0h1024.69v1022.78H0z" opacity=".5"/><path d="M0 0h1024.69v-1022.78H0z" opacity=".5"/><path d="M0 0h-1024.69v1022.78H0z" opacity=".5"/><path d="M0 0h-1024.69v-1022.78H0z" opacity=".5"/></g></g><rect width="210.4" height="210.4" data-figma-gradient-fill="{&quot;type&quot;:&quot;GRADIENT_DIAMOND&quot;,&quot;stops&quot;:[{&quot;color&quot;:{&quot;r&quot;:0.90196079015731812,&quot;g&quot;:0.71764707565307617,&quot;b&quot;:0.45490196347236633,&quot;a&quot;:1.0},&quot;position&quot;:0.0},{&quot;color&quot;:{&quot;r&quot;:1.0,&quot;g&quot;:1.0,&quot;b&quot;:1.0,&quot;a&quot;:1.0},&quot;position&quot;:1.0}],&quot;stopsVar&quot;:[{&quot;color&quot;:{&quot;r&quot;:0.90196079015731812,&quot;g&quot;:0.71764707565307617,&quot;b&quot;:0.45490196347236633,&quot;a&quot;:1.0},&quot;position&quot;:0.0},{&quot;color&quot;:{&quot;r&quot;:1.0,&quot;g&quot;:1.0,&quot;b&quot;:1.0,&quot;a&quot;:1.0},&quot;position&quot;:1.0}],&quot;transform&quot;:{&quot;m00&quot;:210.0,&quot;m01&quot;:-210.0,&quot;m02&quot;:105.00000762939453,&quot;m10&quot;:210.0,&quot;m11&quot;:210.0,&quot;m12&quot;:-104.99999237060547},&quot;opacity&quot;:0.50,&quot;blendMode&quot;:&quot;SOFT_LIGHT&quot;,&quot;visible&quot;:true}" rx="105.2" style="mix-blend-mode:soft-light"/><g opacity=".991"><g clip-path="url(#f)" data-figma-skip-parse="true"><g fill="url(#g)" shape-rendering="crispEdges" transform="rotate(90 0 105.2)scale(.0858 .06815)"><path d="M0 0h566.225v566.225H0z"/><path d="M0 0h566.225v-566.225H0z"/><path d="M0 0h-566.225v566.225H0z"/><path d="M0 0h-566.225v-566.225H0z"/></g></g><path d="M143.788 153.782H66.611v-8.113h77.177z" data-figma-gradient-fill="{&quot;type&quot;:&quot;GRADIENT_DIAMOND&quot;,&quot;stops&quot;:[{&quot;color&quot;:{&quot;r&quot;:0.49512094259262085,&quot;g&quot;:0.49512094259262085,&quot;b&quot;:0.49512094259262085,&quot;a&quot;:1.0},&quot;position&quot;:0.0},{&quot;color&quot;:{&quot;r&quot;:0.095120944082736969,&quot;g&quot;:0.095120944082736969,&quot;b&quot;:0.095120944082736969,&quot;a&quot;:1.0},&quot;position&quot;:1.0}],&quot;stopsVar&quot;:[{&quot;color&quot;:{&quot;r&quot;:0.49512094259262085,&quot;g&quot;:0.49512094259262085,&quot;b&quot;:0.49512094259262085,&quot;a&quot;:1.0},&quot;position&quot;:0.0},{&quot;color&quot;:{&quot;r&quot;:0.095120944082736969,&quot;g&quot;:0.095120944082736969,&quot;b&quot;:0.095120944082736969,&quot;a&quot;:1.0},&quot;position&quot;:1.0}],&quot;transform&quot;:{&quot;m00&quot;:2.2255569782914097e-13,&quot;m01&quot;:-136.30113220214844,&quot;m02&quot;:173.35047912597656,&quot;m10&quot;:171.5996093750,&quot;m11&quot;:3.2082202969544935e-14,&quot;m12&quot;:19.4003906250},&quot;opacity&quot;:1.0,&quot;blendMode&quot;:&quot;NORMAL&quot;,&quot;visible&quot;:true}"/><g clip-path="url(#h)" data-figma-skip-parse="true"><g fill="url(#i)" shape-rendering="crispEdges" transform="rotate(90 0 105.2)scale(.0858 .06815)"><path d="M0 0h566.225v566.225H0z"/><path d="M0 0h566.225v-566.225H0z"/><path d="M0 0h-566.225v566.225H0z"/><path d="M0 0h-566.225v-566.225H0z"/></g></g><path d="M99.659 144.679H72.746v-3.562h26.913z" data-figma-gradient-fill="{&quot;type&quot;:&quot;GRADIENT_DIAMOND&quot;,&quot;stops&quot;:[{&quot;color&quot;:{&quot;r&quot;:0.49512094259262085,&quot;g&quot;:0.49512094259262085,&quot;b&quot;:0.49512094259262085,&quot;a&quot;:1.0},&quot;position&quot;:0.0},{&quot;color&quot;:{&quot;r&quot;:0.095120944082736969,&quot;g&quot;:0.095120944082736969,&quot;b&quot;:0.095120944082736969,&quot;a&quot;:1.0},&quot;position&quot;:1.0}],&quot;stopsVar&quot;:[{&quot;color&quot;:{&quot;r&quot;:0.49512094259262085,&quot;g&quot;:0.49512094259262085,&quot;b&quot;:0.49512094259262085,&quot;a&quot;:1.0},&quot;position&quot;:0.0},{&quot;color&quot;:{&quot;r&quot;:0.095120944082736969,&quot;g&quot;:0.095120944082736969,&quot;b&quot;:0.095120944082736969,&quot;a&quot;:1.0},&quot;position&quot;:1.0}],&quot;transform&quot;:{&quot;m00&quot;:2.2255569782914097e-13,&quot;m01&quot;:-136.30113220214844,&quot;m02&quot;:173.35047912597656,&quot;m10&quot;:171.5996093750,&quot;m11&quot;:3.2082202969544935e-14,&quot;m12&quot;:19.4003906250},&quot;opacity&quot;:1.0,&quot;blendMode&quot;:&quot;NORMAL&quot;,&quot;visible&quot;:true}"/><g clip-path="url(#j)" data-figma-skip-parse="true"><g fill="url(#k)" shape-rendering="crispEdges" transform="rotate(90 0 105.2)scale(.0858 .06815)"><path d="M0 0h566.225v566.225H0z"/><path d="M0 0h566.225v-566.225H0z"/><path d="M0 0h-566.225v566.225H0z"/><path d="M0 0h-566.225v-566.225H0z"/></g></g><path d="M137.456 144.679h-26.715v-3.562h26.715z" data-figma-gradient-fill="{&quot;type&quot;:&quot;GRADIENT_DIAMOND&quot;,&quot;stops&quot;:[{&quot;color&quot;:{&quot;r&quot;:0.49512094259262085,&quot;g&quot;:0.49512094259262085,&quot;b&quot;:0.49512094259262085,&quot;a&quot;:1.0},&quot;position&quot;:0.0},{&quot;color&quot;:{&quot;r&quot;:0.095120944082736969,&quot;g&quot;:0.095120944082736969,&quot;b&quot;:0.095120944082736969,&quot;a&quot;:1.0},&quot;position&quot;:1.0}],&quot;stopsVar&quot;:[{&quot;color&quot;:{&quot;r&quot;:0.49512094259262085,&quot;g&quot;:0.49512094259262085,&quot;b&quot;:0.49512094259262085,&quot;a&quot;:1.0},&quot;position&quot;:0.0},{&quot;color&quot;:{&quot;r&quot;:0.095120944082736969,&quot;g&quot;:0.095120944082736969,&quot;b&quot;:0.095120944082736969,&quot;a&quot;:1.0},&quot;position&quot;:1.0}],&quot;transform&quot;:{&quot;m00&quot;:2.2255569782914097e-13,&quot;m01&quot;:-136.30113220214844,&quot;m02&quot;:173.35047912597656,&quot;m10&quot;:171.5996093750,&quot;m11&quot;:3.2082202969544935e-14,&quot;m12&quot;:19.4003906250},&quot;opacity&quot;:1.0,&quot;blendMode&quot;:&quot;NORMAL&quot;,&quot;visible&quot;:true}"/><g clip-path="url(#l)" data-figma-skip-parse="true"><g fill="url(#m)" shape-rendering="crispEdges" transform="rotate(90 0 105.2)scale(.0858 .06815)"><path d="M0 0h566.225v566.225H0z"/><path d="M0 0h566.225v-566.225H0z"/><path d="M0 0h-566.225v566.225H0z"/><path d="M0 0h-566.225v-566.225H0z"/></g></g><path d="M98.472 140.721H73.933v-1.583h24.539z" data-figma-gradient-fill="{&quot;type&quot;:&quot;GRADIENT_DIAMOND&quot;,&quot;stops&quot;:[{&quot;color&quot;:{&quot;r&quot;:0.49512094259262085,&quot;g&quot;:0.49512094259262085,&quot;b&quot;:0.49512094259262085,&quot;a&quot;:1.0},&quot;position&quot;:0.0},{&quot;color&quot;:{&quot;r&quot;:0.095120944082736969,&quot;g&quot;:0.095120944082736969,&quot;b&quot;:0.095120944082736969,&quot;a&quot;:1.0},&quot;position&quot;:1.0}],&quot;stopsVar&quot;:[{&quot;color&quot;:{&quot;r&quot;:0.49512094259262085,&quot;g&quot;:0.49512094259262085,&quot;b&quot;:0.49512094259262085,&quot;a&quot;:1.0},&quot;position&quot;:0.0},{&quot;color&quot;:{&quot;r&quot;:0.095120944082736969,&quot;g&quot;:0.095120944082736969,&quot;b&quot;:0.095120944082736969,&quot;a&quot;:1.0},&quot;position&quot;:1.0}],&quot;transform&quot;:{&quot;m00&quot;:2.2255569782914097e-13,&quot;m01&quot;:-136.30113220214844,&quot;m02&quot;:173.35047912597656,&quot;m10&quot;:171.5996093750,&quot;m11&quot;:3.2082202969544935e-14,&quot;m12&quot;:19.4003906250},&quot;opacity&quot;:1.0,&quot;blendMode&quot;:&quot;NORMAL&quot;,&quot;visible&quot;:true}"/><g clip-path="url(#n)" data-figma-skip-parse="true"><g fill="url(#o)" shape-rendering="crispEdges" transform="rotate(90 0 105.2)scale(.0858 .06815)"><path d="M0 0h566.225v566.225H0z"/><path d="M0 0h566.225v-566.225H0z"/><path d="M0 0h-566.225v566.225H0z"/><path d="M0 0h-566.225v-566.225H0z"/></g></g><path d="M136.467 140.721H111.73v-1.583h24.737z" data-figma-gradient-fill="{&quot;type&quot;:&quot;GRADIENT_DIAMOND&quot;,&quot;stops&quot;:[{&quot;color&quot;:{&quot;r&quot;:0.49512094259262085,&quot;g&quot;:0.49512094259262085,&quot;b&quot;:0.49512094259262085,&quot;a&quot;:1.0},&quot;position&quot;:0.0},{&quot;color&quot;:{&quot;r&quot;:0.095120944082736969,&quot;g&quot;:0.095120944082736969,&quot;b&quot;:0.095120944082736969,&quot;a&quot;:1.0},&quot;position&quot;:1.0}],&quot;stopsVar&quot;:[{&quot;color&quot;:{&quot;r&quot;:0.49512094259262085,&quot;g&quot;:0.49512094259262085,&quot;b&quot;:0.49512094259262085,&quot;a&quot;:1.0},&quot;position&quot;:0.0},{&quot;color&quot;:{&quot;r&quot;:0.095120944082736969,&quot;g&quot;:0.095120944082736969,&quot;b&quot;:0.095120944082736969,&quot;a&quot;:1.0},&quot;position&quot;:1.0}],&quot;transform&quot;:{&quot;m00&quot;:2.2255569782914097e-13,&quot;m01&quot;:-136.30113220214844,&quot;m02&quot;:173.35047912597656,&quot;m10&quot;:171.5996093750,&quot;m11&quot;:3.2082202969544935e-14,&quot;m12&quot;:19.4003906250},&quot;opacity&quot;:1.0,&quot;blendMode&quot;:&quot;NORMAL&quot;,&quot;visible&quot;:true}"/><g clip-path="url(#p)" data-figma-skip-parse="true"><g fill="url(#q)" shape-rendering="crispEdges" transform="rotate(90 0 105.2)scale(.0858 .06815)"><path d="M0 0h566.225v566.225H0z"/><path d="M0 0h566.225v-566.225H0z"/><path d="M0 0h-566.225v566.225H0z"/><path d="M0 0h-566.225v-566.225H0z"/></g></g><path d="M111.73 62.456a773 773 0 0 1 24.737 0l-5.64 5.64a5352 5352 0 0 0 0 65.106l5.64 5.64q-12.369.198-24.737 0l5.64-5.64q.149-21.867.099-43.734H92.733q-.05 21.768.099 43.536a228 228 0 0 1 5.64 5.739q-12.27.395-24.539 0a228 228 0 0 1 5.64-5.739q.198-32.454 0-64.908a223 223 0 0 0-5.64-5.541 381 381 0 0 1 24.539 0 231 231 0 0 1-5.64 5.739q-.149 7.816-.1 15.633h24.737q.05-7.917-.099-15.831zm-29.485 70.152h1.979v-62.93h-1.98zm5.343 0h1.979v-62.93h-1.98zm33.245 0h1.979v-62.93h-1.979zm5.343 0h1.979v-62.93h-1.979z" clip-rule="evenodd" data-figma-gradient-fill="{&quot;type&quot;:&quot;GRADIENT_DIAMOND&quot;,&quot;stops&quot;:[{&quot;color&quot;:{&quot;r&quot;:0.49512094259262085,&quot;g&quot;:0.49512094259262085,&quot;b&quot;:0.49512094259262085,&quot;a&quot;:1.0},&quot;position&quot;:0.0},{&quot;color&quot;:{&quot;r&quot;:0.095120944082736969,&quot;g&quot;:0.095120944082736969,&quot;b&quot;:0.095120944082736969,&quot;a&quot;:1.0},&quot;position&quot;:1.0}],&quot;stopsVar&quot;:[{&quot;color&quot;:{&quot;r&quot;:0.49512094259262085,&quot;g&quot;:0.49512094259262085,&quot;b&quot;:0.49512094259262085,&quot;a&quot;:1.0},&quot;position&quot;:0.0},{&quot;color&quot;:{&quot;r&quot;:0.095120944082736969,&quot;g&quot;:0.095120944082736969,&quot;b&quot;:0.095120944082736969,&quot;a&quot;:1.0},&quot;position&quot;:1.0}],&quot;transform&quot;:{&quot;m00&quot;:2.2255569782914097e-13,&quot;m01&quot;:-136.30113220214844,&quot;m02&quot;:173.35047912597656,&quot;m10&quot;:171.5996093750,&quot;m11&quot;:3.2082202969544935e-14,&quot;m12&quot;:19.4003906250},&quot;opacity&quot;:1.0,&quot;blendMode&quot;:&quot;NORMAL&quot;,&quot;visible&quot;:true}"/><g clip-path="url(#r)" data-figma-skip-parse="true"><g fill="url(#s)" shape-rendering="crispEdges" transform="rotate(90 0 105.2)scale(.0858 .06815)"><path d="M0 0h566.225v566.225H0z"/><path d="M0 0h566.225v-566.225H0z"/><path d="M0 0h-566.225v566.225H0z"/><path d="M0 0h-566.225v-566.225H0z"/></g></g><path d="M98.472 61.961H73.933v-1.583h24.539z" data-figma-gradient-fill="{&quot;type&quot;:&quot;GRADIENT_DIAMOND&quot;,&quot;stops&quot;:[{&quot;color&quot;:{&quot;r&quot;:0.49512094259262085,&quot;g&quot;:0.49512094259262085,&quot;b&quot;:0.49512094259262085,&quot;a&quot;:1.0},&quot;position&quot;:0.0},{&quot;color&quot;:{&quot;r&quot;:0.095120944082736969,&quot;g&quot;:0.095120944082736969,&quot;b&quot;:0.095120944082736969,&quot;a&quot;:1.0},&quot;position&quot;:1.0}],&quot;stopsVar&quot;:[{&quot;color&quot;:{&quot;r&quot;:0.49512094259262085,&quot;g&quot;:0.49512094259262085,&quot;b&quot;:0.49512094259262085,&quot;a&quot;:1.0},&quot;position&quot;:0.0},{&quot;color&quot;:{&quot;r&quot;:0.095120944082736969,&quot;g&quot;:0.095120944082736969,&quot;b&quot;:0.095120944082736969,&quot;a&quot;:1.0},&quot;position&quot;:1.0}],&quot;transform&quot;:{&quot;m00&quot;:2.2255569782914097e-13,&quot;m01&quot;:-136.30113220214844,&quot;m02&quot;:173.35047912597656,&quot;m10&quot;:171.5996093750,&quot;m11&quot;:3.2082202969544935e-14,&quot;m12&quot;:19.4003906250},&quot;opacity&quot;:1.0,&quot;blendMode&quot;:&quot;NORMAL&quot;,&quot;visible&quot;:true}"/><g clip-path="url(#t)" data-figma-skip-parse="true"><g fill="url(#u)" shape-rendering="crispEdges" transform="rotate(90 0 105.2)scale(.0858 .06815)"><path d="M0 0h566.225v566.225H0z"/><path d="M0 0h566.225v-566.225H0z"/><path d="M0 0h-566.225v566.225H0z"/><path d="M0 0h-566.225v-566.225H0z"/></g></g><path d="M136.467 61.961H111.73v-1.583h24.737z" data-figma-gradient-fill="{&quot;type&quot;:&quot;GRADIENT_DIAMOND&quot;,&quot;stops&quot;:[{&quot;color&quot;:{&quot;r&quot;:0.49512094259262085,&quot;g&quot;:0.49512094259262085,&quot;b&quot;:0.49512094259262085,&quot;a&quot;:1.0},&quot;position&quot;:0.0},{&quot;color&quot;:{&quot;r&quot;:0.095120944082736969,&quot;g&quot;:0.095120944082736969,&quot;b&quot;:0.095120944082736969,&quot;a&quot;:1.0},&quot;position&quot;:1.0}],&quot;stopsVar&quot;:[{&quot;color&quot;:{&quot;r&quot;:0.49512094259262085,&quot;g&quot;:0.49512094259262085,&quot;b&quot;:0.49512094259262085,&quot;a&quot;:1.0},&quot;position&quot;:0.0},{&quot;color&quot;:{&quot;r&quot;:0.095120944082736969,&quot;g&quot;:0.095120944082736969,&quot;b&quot;:0.095120944082736969,&quot;a&quot;:1.0},&quot;position&quot;:1.0}],&quot;transform&quot;:{&quot;m00&quot;:2.2255569782914097e-13,&quot;m01&quot;:-136.30113220214844,&quot;m02&quot;:173.35047912597656,&quot;m10&quot;:171.5996093750,&quot;m11&quot;:3.2082202969544935e-14,&quot;m12&quot;:19.4003906250},&quot;opacity&quot;:1.0,&quot;blendMode&quot;:&quot;NORMAL&quot;,&quot;visible&quot;:true}"/><g clip-path="url(#v)" data-figma-skip-parse="true"><g fill="url(#w)" shape-rendering="crispEdges" transform="rotate(90 0 105.2)scale(.0858 .06815)"><path d="M0 0h566.225v566.225H0z"/><path d="M0 0h566.225v-566.225H0z"/><path d="M0 0h-566.225v566.225H0z"/><path d="M0 0h-566.225v-566.225H0z"/></g></g><path d="M99.659 60.18H72.746v-3.562h26.913z" data-figma-gradient-fill="{&quot;type&quot;:&quot;GRADIENT_DIAMOND&quot;,&quot;stops&quot;:[{&quot;color&quot;:{&quot;r&quot;:0.49512094259262085,&quot;g&quot;:0.49512094259262085,&quot;b&quot;:0.49512094259262085,&quot;a&quot;:1.0},&quot;position&quot;:0.0},{&quot;color&quot;:{&quot;r&quot;:0.095120944082736969,&quot;g&quot;:0.095120944082736969,&quot;b&quot;:0.095120944082736969,&quot;a&quot;:1.0},&quot;position&quot;:1.0}],&quot;stopsVar&quot;:[{&quot;color&quot;:{&quot;r&quot;:0.49512094259262085,&quot;g&quot;:0.49512094259262085,&quot;b&quot;:0.49512094259262085,&quot;a&quot;:1.0},&quot;position&quot;:0.0},{&quot;color&quot;:{&quot;r&quot;:0.095120944082736969,&quot;g&quot;:0.095120944082736969,&quot;b&quot;:0.095120944082736969,&quot;a&quot;:1.0},&quot;position&quot;:1.0}],&quot;transform&quot;:{&quot;m00&quot;:2.2255569782914097e-13,&quot;m01&quot;:-136.30113220214844,&quot;m02&quot;:173.35047912597656,&quot;m10&quot;:171.5996093750,&quot;m11&quot;:3.2082202969544935e-14,&quot;m12&quot;:19.4003906250},&quot;opacity&quot;:1.0,&quot;blendMode&quot;:&quot;NORMAL&quot;,&quot;visible&quot;:true}"/><g clip-path="url(#x)" data-figma-skip-parse="true"><g fill="url(#y)" shape-rendering="crispEdges" transform="rotate(90 0 105.2)scale(.0858 .06815)"><path d="M0 0h566.225v566.225H0z"/><path d="M0 0h566.225v-566.225H0z"/><path d="M0 0h-566.225v566.225H0z"/><path d="M0 0h-566.225v-566.225H0z"/></g></g><path d="M137.456 60.18h-26.715v-3.562h26.715z" data-figma-gradient-fill="{&quot;type&quot;:&quot;GRADIENT_DIAMOND&quot;,&quot;stops&quot;:[{&quot;color&quot;:{&quot;r&quot;:0.49512094259262085,&quot;g&quot;:0.49512094259262085,&quot;b&quot;:0.49512094259262085,&quot;a&quot;:1.0},&quot;position&quot;:0.0},{&quot;color&quot;:{&quot;r&quot;:0.095120944082736969,&quot;g&quot;:0.095120944082736969,&quot;b&quot;:0.095120944082736969,&quot;a&quot;:1.0},&quot;position&quot;:1.0}],&quot;stopsVar&quot;:[{&quot;color&quot;:{&quot;r&quot;:0.49512094259262085,&quot;g&quot;:0.49512094259262085,&quot;b&quot;:0.49512094259262085,&quot;a&quot;:1.0},&quot;position&quot;:0.0},{&quot;color&quot;:{&quot;r&quot;:0.095120944082736969,&quot;g&quot;:0.095120944082736969,&quot;b&quot;:0.095120944082736969,&quot;a&quot;:1.0},&quot;position&quot;:1.0}],&quot;transform&quot;:{&quot;m00&quot;:2.2255569782914097e-13,&quot;m01&quot;:-136.30113220214844,&quot;m02&quot;:173.35047912597656,&quot;m10&quot;:171.5996093750,&quot;m11&quot;:3.2082202969544935e-14,&quot;m12&quot;:19.4003906250},&quot;opacity&quot;:1.0,&quot;blendMode&quot;:&quot;NORMAL&quot;,&quot;visible&quot;:true}"/></g><g filter="url(#z)" style="mix-blend-mode:lighten"><path fill="#ffe7c6" d="M-59-34.8h20v280h-20z"/></g></g><defs><clipPath id="b"><rect width="210.4" height="210.4" rx="105.2"/></clipPath><clipPath id="d"><rect width="210.4" height="210.4" rx="105.2" style="mix-blend-mode:soft-light"/></clipPath><clipPath id="f"><path d="M143.788 153.782H66.611v-8.113h77.177z"/></clipPath><clipPath id="h"><path d="M99.659 144.679H72.746v-3.562h26.913z"/></clipPath><clipPath id="j"><path d="M137.456 144.679h-26.715v-3.562h26.715z"/></clipPath><clipPath id="l"><path d="M98.472 140.721H73.933v-1.583h24.539z"/></clipPath><clipPath id="n"><path d="M136.467 140.721H111.73v-1.583h24.737z"/></clipPath><clipPath id="p"><path fill-rule="evenodd" d="M111.73 62.456a773 773 0 0 1 24.737 0l-5.64 5.64a5352 5352 0 0 0 0 65.106l5.64 5.64q-12.369.198-24.737 0l5.64-5.64q.149-21.867.099-43.734H92.733q-.05 21.768.099 43.536a228 228 0 0 1 5.64 5.739q-12.27.395-24.539 0a228 228 0 0 1 5.64-5.739q.198-32.454 0-64.908a223 223 0 0 0-5.64-5.541 381 381 0 0 1 24.539 0 231 231 0 0 1-5.64 5.739q-.149 7.816-.1 15.633h24.737q.05-7.917-.099-15.831zm-29.485 70.152h1.979v-62.93h-1.98zm5.343 0h1.979v-62.93h-1.98zm33.245 0h1.979v-62.93h-1.979zm5.343 0h1.979v-62.93h-1.979z" clip-rule="evenodd"/></clipPath><clipPath id="r"><path d="M98.472 61.961H73.933v-1.583h24.539z"/></clipPath><clipPath id="t"><path d="M136.467 61.961H111.73v-1.583h24.737z"/></clipPath><clipPath id="v"><path d="M99.659 60.18H72.746v-3.562h26.913z"/></clipPath><clipPath id="x"><path d="M137.456 60.18h-26.715v-3.562h26.715z"/></clipPath><clipPath id="a"><rect width="210" height="211" fill="#fff" rx="105"/></clipPath><linearGradient id="c" x1="0" x2="500" y1="0" y2="500" gradientUnits="userSpaceOnUse"><stop offset=".255" stop-color="#ffcc84"/><stop offset="1" stop-color="#504029"/></linearGradient><linearGradient id="e" x1="0" x2="500" y1="0" y2="500" gradientUnits="userSpaceOnUse"><stop stop-color="#e6b774"/><stop offset="1" stop-color="#fff"/></linearGradient><linearGradient id="g" x1="0" x2="500" y1="0" y2="500" gradientUnits="userSpaceOnUse"><stop stop-color="#7e7e7e"/><stop offset="1" stop-color="#181818"/></linearGradient><linearGradient id="i" x1="0" x2="500" y1="0" y2="500" gradientUnits="userSpaceOnUse"><stop stop-color="#7e7e7e"/><stop offset="1" stop-color="#181818"/></linearGradient><linearGradient id="k" x1="0" x2="500" y1="0" y2="500" gradientUnits="userSpaceOnUse"><stop stop-color="#7e7e7e"/><stop offset="1" stop-color="#181818"/></linearGradient><linearGradient id="m" x1="0" x2="500" y1="0" y2="500" gradientUnits="userSpaceOnUse"><stop stop-color="#7e7e7e"/><stop offset="1" stop-color="#181818"/></linearGradient><linearGradient id="o" x1="0" x2="500" y1="0" y2="500" gradientUnits="userSpaceOnUse"><stop stop-color="#7e7e7e"/><stop offset="1" stop-color="#181818"/></linearGradient><linearGradient id="q" x1="0" x2="500" y1="0" y2="500" gradientUnits="userSpaceOnUse"><stop stop-color="#7e7e7e"/><stop offset="1" stop-color="#181818"/></linearGradient><linearGradient id="s" x1="0" x2="500" y1="0" y2="500" gradientUnits="userSpaceOnUse"><stop stop-color="#7e7e7e"/><stop offset="1" stop-color="#181818"/></linearGradient><linearGradient id="u" x1="0" x2="500" y1="0" y2="500" gradientUnits="userSpaceOnUse"><stop stop-color="#7e7e7e"/><stop offset="1" stop-color="#181818"/></linearGradient><linearGradient id="w" x1="0" x2="500" y1="0" y2="500" gradientUnits="userSpaceOnUse"><stop stop-color="#7e7e7e"/><stop offset="1" stop-color="#181818"/></linearGradient><linearGradient id="y" x1="0" x2="500" y1="0" y2="500" gradientUnits="userSpaceOnUse"><stop stop-color="#7e7e7e"/><stop offset="1" stop-color="#181818"/></linearGradient><filter id="z" width="180" height="440" x="-139" y="-114.8" color-interpolation-filters="sRGB" filterUnits="userSpaceOnUse"><feFlood flood-opacity="0" result="BackgroundImageFix"/><feBlend in="SourceGraphic" in2="BackgroundImageFix" result="shape"/><feGaussianBlur result="effect1_foregroundBlur_118_379" stdDeviation="40"/></filter></defs></svg>