<svg width="164" height="35" viewBox="0 0 164 35" fill="none" xmlns="http://www.w3.org/2000/svg">
<g opacity="0.918">
<path d="M104.107 26.1931C105.42 26.0372 106.624 26.3232 107.718 27.0509C108.023 27.326 108.294 27.6269 108.531 27.9538C108.334 28.181 108.108 28.3766 107.854 28.5407C106.361 26.9215 104.661 26.6657 102.752 27.7732C101.244 29.1777 100.988 30.788 101.985 32.6038C103.212 33.9991 104.702 34.3753 106.454 33.7325C106.973 33.4536 107.44 33.1075 107.854 32.6941C108.063 32.8433 108.274 32.9938 108.486 33.1456C108.142 33.7892 107.615 34.2557 106.906 34.5451C105.285 35.1401 103.72 35.0197 102.21 34.1839C100.562 32.8119 100.034 31.0814 100.63 28.9921C101.289 27.4231 102.448 26.4901 104.107 26.1931Z" fill="#0F0F0F"/>
<path fill-rule="evenodd" clip-rule="evenodd" d="M80.3598 26.1932C83.0036 25.9664 84.7046 27.1102 85.4613 29.6243C85.7836 32.2775 84.6848 34.0081 82.1656 34.816C79.8199 35.2157 78.1188 34.3579 77.0641 32.2427C76.3888 30.1433 76.8854 28.3826 78.554 26.9606C79.1165 26.5883 79.7187 26.3325 80.3598 26.1932ZM84.6035 30.5723C84.3209 28.1679 82.9665 27.0091 80.5404 27.0961C79.0975 27.501 78.1793 28.4341 77.7865 29.8951C77.5996 32.3269 78.7138 33.7114 81.1273 34.0486C83.2509 33.851 84.4094 32.6923 84.6035 30.5723Z" fill="#0F0F0F"/>
<path fill-rule="evenodd" clip-rule="evenodd" d="M57.6965 26.3737C57.8157 26.3583 57.9214 26.3884 58.0126 26.464C59.3064 29.1871 60.5552 31.926 61.7597 34.6805C61.4229 34.7097 61.0924 34.6795 60.7665 34.5902C60.3538 33.727 59.9322 32.8692 59.5024 32.0169C58.3584 31.9567 57.2153 31.9567 56.0713 32.0169C55.6534 32.8678 55.2471 33.7256 54.8523 34.5902C54.5156 34.6769 54.1695 34.707 53.814 34.6805C55.0585 31.8904 56.353 29.1214 57.6965 26.3737ZM56.5227 31.0688C57.3941 31.174 58.2672 31.1891 59.1412 31.114C58.6988 30.1836 58.2473 29.2656 57.7868 28.3601C57.367 29.2606 56.9453 30.1636 56.5227 31.0688Z" fill="#0F0F0F"/>
<path d="M50.112 33.7777H53.2722V34.6806H49.2091V26.3738H50.112V33.7777Z" fill="#0F0F0F"/>
<path d="M91.2851 27.2767H88.0346V29.8048H91.2851V30.7078H88.0346V34.6806H87.1317V26.3738H91.2851V27.2767Z" fill="#0F0F0F"/>
<path d="M96.8832 27.2767H93.5424V29.8048H96.8832V30.7078H93.5424V34.6806H92.6395V26.3738H96.8832V27.2767Z" fill="#0F0F0F"/>
<path d="M98.9599 34.6806H98.057V26.3738H98.9599V34.6806Z" fill="#0F0F0F"/>
<path d="M114.942 27.2767H110.969V29.8048H114.851V30.7078H110.969V33.7777H114.851V34.6806H110.066V26.3738H114.942V27.2767Z" fill="#0F0F0F"/>
<path d="M71.5563 26.5542C71.8408 26.3861 72.1568 26.3259 72.5044 26.3737C71.7956 29.0279 71.0579 31.6765 70.2923 34.3194C70.2354 34.6893 70.0846 34.7495 69.8408 34.4999C69.0977 32.5628 68.3302 30.6365 67.5384 28.7213C66.6977 30.6564 65.8995 32.6128 65.1456 34.5902C65.0391 34.7014 64.9334 34.7014 64.8296 34.5902C64.0332 31.8543 63.2504 29.1154 62.482 26.3737H63.4752C63.9745 28.2812 64.5163 30.1774 65.1005 32.0621C65.9068 30.1851 66.6589 28.2889 67.3578 26.3737C67.5754 26.3409 67.7108 26.4312 67.7641 26.6445C68.4684 28.4876 69.1907 30.3236 69.9311 32.1523C70.4728 30.2863 71.0146 28.4203 71.5563 26.5542Z" fill="#0F0F0F"/>
<path d="M163.519 22.4009H0V21.5883H163.519V22.4009Z" fill="#0F0F0F"/>
<path fill-rule="evenodd" clip-rule="evenodd" d="M76.8384 0.369588C78.675 0.354545 80.5106 0.369588 82.3462 0.414734C85.12 0.842463 86.1583 2.4226 85.4613 5.15506C85.0297 6.10817 84.4428 6.95088 83.7006 7.68323C84.8103 9.38062 86.0744 10.9607 87.4929 12.4236C88.2269 13.1153 89.0847 13.4614 90.0662 13.4619C90.1258 13.6071 90.0806 13.7125 89.9307 13.7779C88.2576 14.4242 86.7976 14.1082 85.5516 12.8299C84.8247 11.8919 84.1322 10.9289 83.4749 9.94053C82.7489 8.93822 81.7711 8.39645 80.5404 8.31528C80.3661 8.31889 80.2009 8.34896 80.0438 8.40557C79.9833 9.69971 79.9833 10.994 80.0438 12.2881C80.2912 13.003 80.7878 13.3942 81.5336 13.4619V13.8231C80.1205 13.5905 78.7057 13.5905 77.2899 13.8231C77.1698 13.793 77.0488 13.7629 76.9287 13.7328C77.2194 13.4732 77.5057 13.2023 77.7865 12.9202C77.9589 12.675 78.079 12.4041 78.1477 12.1075C78.2081 8.70653 78.2081 5.30556 78.1477 1.90455C77.8759 1.25702 77.41 0.80554 76.7481 0.550172C76.7806 0.488468 76.8113 0.428258 76.8384 0.369588ZM83.6555 3.16864C83.1011 1.61973 82.0031 0.927468 80.3598 1.09192C80.2668 1.1595 80.1612 1.21971 80.0438 1.27251C79.9986 3.25864 79.9833 5.24509 79.9986 7.23177C83.2726 7.76432 84.4916 6.40994 83.6555 3.16864Z" fill="#0F0F0F"/>
<path d="M88.2152 0.369588C89.6337 0.608753 91.0477 0.638856 92.4589 0.45988C92.6007 0.457803 92.7208 0.502965 92.8201 0.595318C92.44 0.830073 92.0788 1.08591 91.7366 1.3628C92.2251 4.4505 92.812 7.52045 93.4973 10.5726C94.7207 7.20344 96.0146 3.86261 97.3798 0.550172C97.4448 0.46437 97.5198 0.449322 97.6056 0.505026C98.0182 1.31519 98.3947 2.14289 98.7342 2.98805C99.6561 5.54249 100.559 8.10076 101.443 10.6629C102.375 7.98897 103.037 5.25003 103.429 2.4463C103.755 1.50261 103.439 0.945793 102.481 0.775901C102.405 0.684596 102.376 0.579242 102.391 0.45988C103.683 0.540357 104.977 0.570451 106.274 0.550172V0.821047C105.406 1.01161 104.879 1.55338 104.693 2.4463C103.594 6.27277 102.48 10.0951 101.353 13.9134C101.233 14.0337 101.112 14.0337 100.992 13.9134C100.666 13.2923 100.365 12.6602 100.089 12.0172C99.0719 9.29884 98.1094 6.55999 97.1992 3.80068C95.9731 6.78599 94.7993 9.79581 93.6779 12.8299C93.5208 13.2946 93.295 13.716 93.0007 14.094C92.6919 13.4026 92.4661 12.6802 92.3235 11.927C91.7881 9.03772 91.1253 6.17841 90.3371 3.34922C90.1159 2.7259 89.845 2.12392 89.5244 1.54338C89.1434 1.16443 88.7064 0.863435 88.2152 0.640464C88.1195 0.556986 88.1195 0.466679 88.2152 0.369588Z" fill="#0F0F0F"/>
<path fill-rule="evenodd" clip-rule="evenodd" d="M152.052 0.00842011C155.642 -0.131135 158.095 1.46404 159.41 4.79389C160.485 8.00918 159.717 10.6728 157.108 12.7847C154.034 14.6845 151.114 14.4738 148.35 12.1527C145.98 10.1246 145.273 7.61153 146.228 4.61331C146.81 2.46615 148.179 1.0967 150.336 0.505026C150.923 0.351277 151.494 0.185744 152.052 0.00842011ZM157.695 4.79389C156.751 2.11891 154.87 0.824696 152.052 0.911339C150.91 1.09815 149.932 1.60982 149.117 2.4463C147.615 4.53935 147.299 6.81166 148.169 9.26334C148.833 11.1306 150.097 12.3947 151.961 13.0556C155.1 13.4805 157.102 12.1713 157.966 9.1279C158.209 7.66077 158.119 6.21607 157.695 4.79389Z" fill="#0F0F0F"/>
<path d="M72.1884 0.45988C73.3757 0.503228 74.564 0.503229 75.7549 0.45988V0.821047C75.2069 0.902227 74.8303 1.20322 74.6263 1.72397C74.5965 4.25213 74.5658 6.78033 74.536 9.30849C73.9157 12.9078 71.7938 14.4578 68.1704 13.9585C66.3609 13.4132 65.0517 12.2845 64.2427 10.5726C64.1533 10.3086 64.0937 10.0377 64.0621 9.75995C64.0323 7.11143 64.0016 4.46278 63.9718 1.81426C63.9249 1.58551 63.8201 1.38986 63.6558 1.22736C63.3578 1.0076 63.0274 0.8571 62.6626 0.775901C62.5868 0.684593 62.557 0.579247 62.5723 0.45988C64.0775 0.506868 65.5817 0.567065 67.0869 0.640464C66.7357 0.929877 66.3898 1.23087 66.0485 1.54338C65.988 1.66376 65.9284 1.78418 65.868 1.90455C65.8481 4.34323 65.8029 6.78114 65.7325 9.2182C65.7768 11.6854 67.0264 12.9796 69.4796 13.1007C71.5166 13.0921 72.75 12.0989 73.1816 10.1211C73.2421 7.41237 73.2421 4.70359 73.1816 1.99484C73.1708 1.59707 73.0055 1.28102 72.685 1.04678C72.3446 0.909561 72.0132 0.759071 71.6918 0.595318C71.838 0.498077 72.0033 0.452919 72.1884 0.45988Z" fill="#0F0F0F"/>
<path fill-rule="evenodd" clip-rule="evenodd" d="M32.776 0.369588C35.4541 0.440991 38.1328 0.456042 40.8119 0.414734C43.6756 1.02111 45.4363 2.75174 46.094 5.60652C46.5698 11.1958 43.9965 13.9647 38.3741 13.9134C36.5908 13.8374 34.8151 13.7621 33.0468 13.6876C32.9438 13.6207 32.9438 13.5454 33.0468 13.4619C33.678 13.3574 34.0542 12.9962 34.1755 12.3784C34.2357 8.70653 34.2357 5.03469 34.1755 1.3628C34.1417 1.28009 34.0966 1.20481 34.0401 1.13707C33.6619 0.950866 33.2707 0.800368 32.8663 0.68561C32.7907 0.594304 32.7606 0.488949 32.776 0.369588ZM37.5614 1.18222C37.0854 1.24025 36.6039 1.33054 36.1168 1.45309C36.0114 4.88381 35.9964 8.31493 36.0716 11.7464C36.1598 12.3761 36.5059 12.7824 37.11 12.9653C38.2285 13.1523 39.3422 13.1222 40.4508 12.875C42.6647 12.3166 43.974 10.917 44.3785 8.67645C44.6473 3.87366 42.3749 1.37552 37.5614 1.18222Z" fill="#0F0F0F"/>
<path d="M120.179 0.098712C120.273 0.0852148 120.364 0.100275 120.449 0.143858C121.154 0.938725 121.891 1.70622 122.662 2.4463C125.253 5.1881 127.811 7.9571 130.336 10.7532C130.389 7.71268 130.359 4.67289 130.246 1.63367C130.191 1.3585 130.056 1.13274 129.84 0.956485C129.475 0.877616 129.114 0.787322 128.756 0.68561C128.68 0.594304 128.651 0.48895 128.666 0.369588C129.69 0.473613 130.713 0.473612 131.736 0.369588C132.066 0.422128 132.397 0.467275 132.729 0.505026C132.771 0.542397 132.8 0.58757 132.819 0.640464C132.465 0.814058 132.104 0.979592 131.736 1.13707C131.674 1.23344 131.628 1.3388 131.6 1.45309C131.654 4.34097 131.654 7.23034 131.6 10.1211C131.574 11.3898 131.499 12.6539 131.375 13.9134C131.211 13.9142 131.061 13.869 130.923 13.7779C127.432 10.4972 124.166 7.02093 121.127 3.34922C121.065 6.39114 121.126 9.43103 121.307 12.4687C121.348 12.651 121.423 12.8165 121.533 12.9653C121.884 13.1134 122.245 13.2338 122.616 13.3265C122.96 13.4327 123.02 13.5982 122.797 13.8231C121.438 13.5264 120.084 13.5264 118.734 13.8231C118.544 13.722 118.514 13.5865 118.644 13.4168C119.059 13.2168 119.435 12.961 119.772 12.6493C119.871 12.4196 119.931 12.1788 119.953 11.927C119.983 8.07448 120.013 4.22206 120.043 0.369588C120.089 0.276904 120.134 0.186593 120.179 0.098712Z" fill="#0F0F0F"/>
<path d="M3.70197 0.45988C5.14618 0.511481 6.59087 0.571671 8.03598 0.640464C7.70867 0.795883 7.37757 0.961425 7.04277 1.13707C6.93289 1.28583 6.85767 1.45139 6.81704 1.63367C6.77189 3.07801 6.75682 4.52276 6.77189 5.96769H14.0855C14.1006 4.46254 14.0855 2.95764 14.0404 1.45309C13.7536 1.10638 13.3774 0.910724 12.9117 0.866193C12.7844 0.83298 12.6941 0.757735 12.6409 0.640464C13.8172 0.584194 14.991 0.554091 16.1623 0.550172C16.5098 0.538226 16.8409 0.583379 17.1555 0.68561C16.8427 0.870392 16.5117 1.02088 16.1623 1.13707C16.0365 1.2428 15.9612 1.37827 15.9365 1.54338C15.8763 5.09482 15.8763 8.64639 15.9365 12.1978C16.0796 12.9728 16.5462 13.4092 17.336 13.5071C17.4116 13.5983 17.4417 13.7037 17.4263 13.8231C15.9204 13.7108 14.4155 13.7108 12.9117 13.8231V13.4619C13.4891 13.4071 13.8653 13.1062 14.0404 12.559C14.0855 10.6632 14.1006 8.76699 14.0855 6.87061H6.77189C6.75682 8.6767 6.77189 10.4826 6.81704 12.2881C7.02363 13.1118 7.55031 13.5031 8.39715 13.4619V13.8231C6.89199 13.8382 5.38708 13.8231 3.88255 13.7779C3.807 13.6867 3.77691 13.5813 3.79226 13.4619C4.28047 13.4958 4.65662 13.3152 4.92091 12.9202C5.02267 10.9515 5.06781 8.98017 5.05635 7.00604C5.04127 5.24537 5.02628 3.48464 5.0112 1.72397C4.83422 1.12912 4.4279 0.798021 3.79226 0.730756C3.71229 0.65627 3.6822 0.565959 3.70197 0.45988Z" fill="#0F0F0F"/>
<path d="M51.1955 0.459968C51.337 0.457891 51.4574 0.503037 51.5567 0.595406C51.2439 0.780181 50.9129 0.930681 50.5635 1.04687C50.4377 1.1526 50.3624 1.28806 50.3377 1.45318C50.2775 5.06484 50.2775 8.67655 50.3377 12.2882C50.4939 13.0976 50.9905 13.4888 51.8276 13.462V13.8232C50.323 13.7148 48.8182 13.7148 47.313 13.8232C47.2976 13.7038 47.3277 13.5984 47.4033 13.5072C47.9659 13.3299 48.3119 12.9536 48.4416 12.3785C48.5018 8.73677 48.5018 5.09491 48.4416 1.45318C48.1882 1.03261 47.8119 0.806879 47.313 0.77599C47.2374 0.684688 47.2073 0.579325 47.2227 0.459968C48.5467 0.577004 49.871 0.577003 51.1955 0.459968Z" fill="#0F0F0F"/>
<path d="M52.9111 0.369588C54.9266 0.434255 56.9435 0.479401 58.9606 0.505026C60.7484 0.713093 61.6215 1.72138 61.5791 3.52981C61.5348 5.44237 60.6617 6.81183 58.9606 7.63809C58.1823 7.91375 57.3995 7.92874 56.613 7.68323C56.5101 7.59973 56.5101 7.5244 56.613 7.4575C58.1019 7.60883 59.171 7.02194 59.8184 5.69681C60.3258 4.0285 59.9195 2.62894 58.5995 1.49824C57.8085 1.02183 56.9959 0.976671 56.1616 1.3628C56.0562 5.09446 56.0412 8.82662 56.1164 12.559C56.2194 13.0231 56.5056 13.309 56.9742 13.4168C57.1846 13.4468 57.3959 13.477 57.6062 13.5071C57.7263 13.5974 57.7263 13.6876 57.6062 13.7779C56.0991 13.8479 54.5943 13.8328 53.0916 13.7328V13.4619C53.6441 13.48 54.0204 13.2392 54.2203 12.7396C54.2805 9.00756 54.2805 5.2754 54.2203 1.54338C53.8915 1.08493 53.4551 0.768881 52.9111 0.595318C52.812 0.525827 52.8119 0.45057 52.9111 0.369588Z" fill="#0F0F0F"/>
<path fill-rule="evenodd" clip-rule="evenodd" d="M24.74 0.098712C24.8769 0.099669 24.9823 0.159879 25.056 0.279296C26.477 4.45203 28.1625 8.51519 30.1124 12.4687C30.5175 13.0402 31.0743 13.3411 31.7828 13.3716V13.7328C30.276 13.6428 28.7712 13.6126 27.2682 13.6425C27.5509 13.3651 27.882 13.1545 28.2614 13.0105C27.6803 11.5528 27.1084 10.093 26.5458 8.6313C25.3201 8.55708 24.1012 8.57207 22.889 8.67645C22.3436 10.0115 21.9073 11.381 21.5798 12.7847C21.5704 12.9784 21.6306 13.144 21.7604 13.2813C21.9947 13.37 22.2355 13.4302 22.4827 13.4619V13.7328C21.1266 13.648 19.7722 13.6179 18.4196 13.6425C18.883 13.4616 19.3345 13.2358 19.7739 12.9653C20.0707 12.668 20.2965 12.3218 20.4511 11.927C21.9613 8.01317 23.391 4.07037 24.74 0.098712ZM24.6497 3.07835C24.2448 4.62241 23.7633 6.14241 23.205 7.63809C24.1982 7.69831 25.1914 7.69831 26.1847 7.63809C25.7337 6.16589 25.2823 4.69113 24.8303 3.21378C24.7999 3.12082 24.7397 3.07565 24.6497 3.07835Z" fill="#0F0F0F"/>
<path fill-rule="evenodd" clip-rule="evenodd" d="M110.517 0.098712C110.683 0.154897 110.788 0.27531 110.833 0.45988C112.156 4.3091 113.691 8.07132 115.438 11.7464C115.726 12.5162 116.254 13.0429 117.018 13.3265C117.196 13.3712 117.377 13.3863 117.56 13.3716V13.7328C116.055 13.617 114.551 13.617 113.045 13.7328C113.026 13.6267 113.055 13.5364 113.136 13.4619C113.439 13.3407 113.71 13.1751 113.948 12.9653C113.367 11.5175 112.825 10.0578 112.323 8.58615C111.067 8.55699 109.818 8.58706 108.576 8.67645C108.022 10.0236 107.586 11.4081 107.267 12.8299C107.257 12.9991 107.317 13.1345 107.447 13.2362C107.675 13.3573 107.916 13.4325 108.17 13.4619V13.7328C106.845 13.6151 105.521 13.6151 104.197 13.7328V13.4619C105.242 13.3351 105.92 12.7633 106.228 11.7464C107.668 7.86473 109.097 3.98215 110.517 0.098712ZM110.427 2.98805C109.927 4.54774 109.446 6.1128 108.982 7.68323C109.948 7.71321 110.91 7.68314 111.872 7.59294C111.402 6.04355 110.921 4.50856 110.427 2.98805Z" fill="#0F0F0F"/>
<path d="M134.354 0.098712C134.645 0.228568 134.946 0.333905 135.257 0.414734C138.237 0.474931 141.217 0.474931 144.196 0.414734C144.427 0.317286 144.668 0.272137 144.919 0.279296C144.934 0.912038 144.919 1.54411 144.873 2.17543C144.862 2.44856 144.771 2.68936 144.603 2.89776C144.454 2.59961 144.303 2.29861 144.151 1.99484C143.762 1.624 143.295 1.42836 142.752 1.40794C141.94 1.36282 141.127 1.34777 140.314 1.3628C140.298 4.91442 140.314 8.4659 140.359 12.0172C140.555 12.8601 141.081 13.3417 141.939 13.4619V13.7328C140.404 13.6231 138.869 13.6231 137.334 13.7328C137.314 13.6267 137.344 13.5364 137.424 13.4619C137.868 13.3986 138.214 13.188 138.463 12.8299C138.593 9.0397 138.638 5.24741 138.598 1.45309C137.484 1.43806 136.371 1.4531 135.257 1.49824C134.703 1.69152 134.326 2.06776 134.129 2.62689C134.037 2.70242 133.932 2.73253 133.813 2.71718C133.768 1.7962 133.949 0.923344 134.354 0.098712Z" fill="#0F0F0F"/>
</g>
</svg>
