<svg width="36" height="45" viewBox="0 0 36 45" fill="none" xmlns="http://www.w3.org/2000/svg">
<g opacity="0.991">
<path d="M35.2138 44.3333H0V40.6314H35.2138V44.3333Z" fill="#E6B774"/>
<path d="M15.0788 40.1799H2.79905V38.5546H15.0788V40.1799Z" fill="#E6B774"/>
<path d="M32.3245 40.1799H20.1351V38.5546H32.3245V40.1799Z" fill="#E6B774"/>
<path d="M14.537 38.3741H3.3408V37.6517H14.537V38.3741Z" fill="#E6B774"/>
<path d="M31.873 38.3741H20.5866V37.6517H31.873V38.3741Z" fill="#E6B774"/>
<path fill-rule="evenodd" clip-rule="evenodd" d="M20.5866 2.66361C24.3488 2.60341 28.1109 2.60341 31.873 2.66361L29.2997 5.23693C29.2395 15.139 29.2395 25.0409 29.2997 34.943L31.873 37.5163C28.1109 37.5765 24.3488 37.5765 20.5866 37.5163L23.1599 34.943C23.205 28.2915 23.2201 21.64 23.205 14.9885H11.9185C11.9035 21.6099 11.9185 28.2313 11.9637 34.8527C12.8378 35.7117 13.6956 36.5846 14.537 37.4711C10.805 37.5915 7.07286 37.5915 3.3408 37.4711C4.18223 36.5846 5.04001 35.7117 5.91412 34.8527C5.97432 24.9808 5.97432 15.1088 5.91412 5.23693C5.06824 4.37594 4.21047 3.53322 3.3408 2.70876C7.05799 2.58861 10.7901 2.58861 14.537 2.70876C13.6956 3.59535 12.8378 4.46818 11.9637 5.32722C11.9185 7.70472 11.9035 10.0824 11.9185 12.4603H23.205C23.2201 10.0523 23.205 7.64453 23.1599 5.23693L20.5866 2.66361ZM7.13306 34.6721H8.03598V5.95927H7.13306V34.6721ZM9.57094 34.6721H10.4739V5.95927H9.57094V34.6721ZM24.74 34.6721H25.6429V5.95927H24.74V34.6721ZM27.1779 34.6721H28.0808V5.95927H27.1779V34.6721Z" fill="#E6B774"/>
<path d="M14.537 2.43788H3.3408V1.71555H14.537V2.43788Z" fill="#E6B774"/>
<path d="M31.873 2.43788H20.5866V1.71555H31.873V2.43788Z" fill="#E6B774"/>
<path d="M15.0788 1.62525H2.79905V0H15.0788V1.62525Z" fill="#E6B774"/>
<path d="M32.3245 1.62525H20.1351V0H32.3245V1.62525Z" fill="#E6B774"/>
</g>
</svg>
